# Object Export From Tinkercad Server 2015

mtllib obj.mtl

o obj_0
v -127.7183 		-173.258 		18.867
v -150.2611 		-161.5487 		1.5
v -150.4032 		-162.0508 		1.5
v -130.2679 		-177.5826 		27
v -129.5742 		-176.0119 		18.867
v -151.6233 		-149.9267 		18.867
v -150.2843 		-149.2298 		18.867
v -150.4285 		-162.3603 		1.5
v -128.5141 		-174.5897 		18.867
v -150.7075 		-161.8455 		1.5
v -151.0559 		-162.8709 		1.5
v -148.5483 		-148.5392 		18.867
v -157.5259 		-175.4614 		27
v -130.7027 		-178.7195 		26.5
v -158.7481 		-174.5623 		26.5
v -130.3627 		-177.6742 		28
v -142.2626 		-146.5928 		25.5
v -131.4417 		-178.6616 		28
v -142.9984 		-146.6174 		26.5
v -142.9984 		-146.6174 		26.1107
v -143.0005 		-146.605 		26.0518
v -140.4056 		-154.2681 		9.425
v -139.176 		-154.6608 		9.425
v -147.4693 		-148.2192 		18.867
v -130.7796 		-178.79 		25.5
v -143.0005 		-146.6014 		25.5
v -136.8748 		-157.7663 		0
v -135.7979 		-158.86 		0
v -131.7596 		-179.5943 		25.5
v -159.8461 		-175.7951 		28
v -133.4166 		-180.7281 		25.5
v -138.6612 		-156.5725 		0
v -138.2191 		-156.8146 		0
v -138.0307 		-156.9273 		0
v -137.8075 		-157.0683 		0
v -157.6733 		-175.2382 		28
v -132.8734 		-180.3902 		26.5
v -142.9984 		-146.6084 		25.5
v -156.3974 		-176.0656 		24.5
v -157.3648 		-174.7645 		24.5
v -150.4285 		-162.3603 		0
v -150.2337 		-161.4992 		0
v -132.0807 		-179.1774 		27
v -150.3706 		-146.4043 		20
v -150.4032 		-162.0508 		0
v -150.4285 		-167.6428 		1.5
v -133.6903 		-180.2786 		27
v -158.267 		-173.2907 		24.5
v -151.2885 		-146.7949 		20
v -151.2338 		-163.7204 		1.5
v -151.3264 		-165.3753 		1.5
v -151.2338 		-166.2859 		1.5
v -151.0127 		-167.2944 		1.5
v -139.5024 		-146.9117 		25.5
v -126.2508 		-175.9435 		20
v -158.9871 		-171.799 		24.5
v -130.4332 		-180.566 		28
v -143.0005 		-155.5576 		0
v -154.2404 		-150.4057 		25.5
v -152.5834 		-149.2719 		25.5
v -142.9984 		-155.5243 		0
v -142.9932 		-155.524 		0
v -141.4015 		-155.6587 		0
v -140.0319 		-155.9988 		0
v -132.7397 		-179.6606 		28
v -133.6324 		-166.4564 		0
v -133.8082 		-180.3554 		28
v -134.3641 		-161.0844 		0
v -133.8366 		-162.5698 		0
v -133.6324 		-163.5373 		0
v -133.5398 		-164.3826 		0
v -133.5398 		-165.6132 		0
v -140.2129 		-146.7896 		26.5
v -137.6769 		-160.2517 		0
v -153.1266 		-149.6098 		26.5
v -136.6379 		-160.5286 		0
v -136.8916 		-160.4065 		0
v -150.4285 		-167.6428 		0
v -142.9984 		-146.958 		26.8498
v -135.8421 		-161.3276 		0
v -133.8135 		-182.7693 		28
v -159.5524 		-170.2746 		24.5
v -136.1716 		-160.8981 		0
v -132.006 		-181.7092 		28
v -134.9199 		-160.0454 		0
v -143.0005 		-146.9403 		26.8321
v -132.4018 		-178.7606 		24.5
v -135.5715 		-162.3572 		0
v -135.6031 		-161.995 		0
v -130.8585 		-177.4236 		24.5
v -152.3097 		-149.7214 		27
v -140.2856 		-152.828 		8.78
v -143.0005 		-160.2549 		0
v -142.9984 		-160.2517 		0
v -152.1865 		-147.2307 		28
v -153.994 		-148.2908 		28
v -155.5668 		-149.434 		28
v -134.1367 		-179.9238 		24.5
v -142.9984 		-147.1134 		27
v -159.9461 		-168.8366 		24.5
v -142.2836 		-147.1181 		27
v -153.2603 		-150.3394 		28
v -135.5715 		-167.6397 		0
v -135.5968 		-167.9492 		0
v -152.1918 		-149.6446 		28
v -151.8633 		-150.0762 		24.5
v -134.0177 		-167.9955 		0
v -142.1499 		-152.5659 		8.78
v -143.0005 		-146.5907 		26.5
v -143.0005 		-151.9567 		9.6431
v -136.3842 		-169.2977 		0
v -136.0958 		-169.024 		0
v -135.7663 		-168.5008 		0
v -152.1949 		-147.2349 		20
v -134.5767 		-169.3514 		0
v -134.7694 		-169.703 		0
v -154.3751 		-148.5519 		20
v -137.6769 		-169.7451 		0
v -136.8116 		-169.5525 		0
v -155.6152 		-149.473 		20
v -151.9823 		-162.0045 		0
v -152.3676 		-163.5436 		0
v -135.6726 		-171.0136 		0
v -136.6484 		-172.0358 		0
v -140.9604 		-147.2223 		27
v -128.8489 		-179.1416 		20
v -143.0005 		-169.7483 		0
v -155.2204 		-151.21 		25.5
v -142.9984 		-169.7451 		0
v -127.4635 		-177.6057 		20
v -142.0173 		-146.6022 		26.5
v -137.9001 		-172.9875 		0
v -138.6444 		-173.4159 		0
v -155.2973 		-151.2805 		26.5
v -133.4977 		-159.3864 		9.425
v -155.7321 		-152.4174 		27
v -152.4602 		-164.3868 		0
v -130.6427 		-177.2131 		18.867
v -152.4602 		-165.6174 		0
v -131.7817 		-178.2595 		18.867
v -153.9193 		-150.8226 		27
v -152.3676 		-166.4627 		0
v -132.7934 		-160.8002 		9.425
v -143.0005 		-152.5377 		8.78
v -133.0418 		-179.2301 		18.867
v -143.0005 		-174.4757 		0
v -140.3835 		-174.1065 		0
v -140.6835 		-174.1876 		0
v -159.8945 		-169.0282 		18.867
v -152.1634 		-167.4302 		0
v -159.4302 		-170.6589 		18.867
v -134.3767 		-180.0733 		18.867
v -142.9984 		-174.4424 		0
v -139.2392 		-173.6949 		0
v -141.5899 		-174.3634 		0
v -155.6373 		-152.3258 		28
v -142.9984 		-152.5449 		8.78
v -154.5583 		-151.3384 		28
v -156.1363 		-152.0879 		25.5
v -131.1027 		-161.275 		8.78
v -156.3953 		-152.3532 		26.5
v -145.6165 		-155.8935 		0
v -145.3165 		-155.8124 		0
v -146.7608 		-156.3051 		0
v -144.4101 		-155.6366 		0
v -155.9984 		-176.512 		18.867
v -133.8051 		-182.7651 		20
v -131.6249 		-181.4481 		20
v -156.9806 		-175.315 		18.867
v -150.3274 		-158.9864 		0
v -149.3516 		-157.9642 		0
v -158.067 		-173.657 		18.867
v -148.0999 		-157.0125 		0
v -130.3848 		-180.527 		20
v -147.3556 		-156.5841 		0
v -131.6344 		-159.8328 		8.78
v -158.646 		-172.5506 		18.867
v -148.3231 		-160.2549 		0
v -149.1884 		-160.4475 		0
v -157.5427 		-151.2689 		28
v -132.326 		-162.1687 		9.425
v -149.6158 		-160.7023 		0
v -132.0881 		-163.2962 		9.425
v -137.9464 		-155.1819 		9.425
v -158.288 		-154.7239 		25.5
v -157.3364 		-153.427 		25.5
v -137.1359 		-155.6451 		9.425
v -149.9042 		-160.976 		0
v -157.5533 		-153.7112 		26.5
v -151.4233 		-160.6486 		0
v -151.2306 		-160.297 		0
v -134.862 		-181.526 		25.5
v -135.9768 		-156.4872 		9.425
v -130.6764 		-163.0162 		8.78
v -135.7694 		-181.9355 		26.5
v -157.6469 		-154.7229 		27
v -135.9789 		-182.0282 		25.5
v -159.7492 		-175.9467 		20
v -143.0005 		-147.1556 		27.5888
v -156.5637 		-153.3249 		27
v -135.1378 		-181.0734 		27
v -161.0051 		-161.0992 		25.5
v -160.5619 		-159.4296 		25.5
v -160.5619 		-159.4296 		26.5
v -159.2755 		-153.3701 		28
v -136.2947 		-181.5913 		27
v -159.8692 		-154.2449 		28
v -131.9776 		-165.5911 		9.425
v -148.3231 		-169.7483 		0
v -156.7153 		-153.5028 		28
v -149.3621 		-169.4714 		0
v -135.061 		-183.3525 		28
v -148.3231 		-169.7483 		1.5
v -149.1084 		-169.5935 		0
v -149.3621 		-169.4714 		1.5
v -131.9797 		-164.2805 		9.425
v -149.0547 		-169.6146 		1.5
v -134.883 		-155.5208 		8.78
v -160.9335 		-160.7655 		26.5
v -159.9661 		-157.8168 		25.5
v -135.1378 		-181.0734 		28
v -136.2947 		-181.5913 		28
v -150.3969 		-168.005 		0
v -159.2081 		-156.2409 		25.5
v -150.1579 		-168.6724 		0
v -149.8284 		-169.1019 		0
v -137.4969 		-182.5777 		25.5
v -150.3464 		-168.1903 		1.5
v -130.5427 		-165.6985 		8.78
v -151.0801 		-169.9546 		0
v -150.04 		-168.8493 		1.5
v -130.5459 		-164.1594 		8.78
v -137.4969 		-182.5777 		26.5
v -159.8766 		-157.6063 		26.5
v -149.7074 		-169.224 		1.5
v -150.6706 		-168.2545 		1.5
v -149.8842 		-169.6946 		1.5
v -159.2081 		-156.2409 		26.5
v -158.5375 		-155.0934 		26.5
v -149.1252 		-172.2337 		0
v -150.2021 		-171.14 		0
v -162.2484 		-159.5464 		28
v -135.1652 		-157.2168 		9.425
v -159.4818 		-158.0221 		27
v -137.6538 		-182.0756 		27
v -160.2914 		-160.377 		28
v -132.0881 		-166.6964 		9.425
v -158.7449 		-156.4914 		27
v -161.2778 		-162.6414 		25.5
v -132.3239 		-167.8229 		9.425
v -138.556 		-184.4989 		28
v -161.2378 		-162.4382 		26.5
v -143.0068 		-174.476 		0
v -144.5985 		-174.3413 		0
v -137.0264 		-184.0841 		28
v -145.9681 		-174.0012 		0
v -137.6538 		-182.0756 		28
v -147.3388 		-173.4275 		0
v -147.7809 		-173.1854 		0
v -147.9693 		-173.0727 		0
v -148.1925 		-172.9317 		0
v -130.7069 		-167.1249 		8.78
v -138.7391 		-182.9209 		25.5
v -151.6359 		-168.9156 		0
v -123.9401 		-158.9264 		28
v -124.5917 		-157.1715 		28
v -129.471 		-150.2604 		28
v -139.9034 		-183.1567 		25.5
v -159.1334 		-157.2515 		28
v -134.2504 		-147.0138 		28
v -133.8609 		-149.6098 		28
v -158.0365 		-155.2903 		28
v -133.1103 		-150.0783 		28
v -139.7371 		-183.1304 		26.5
v -160.7977 		-163.0962 		27
v -130.2069 		-149.6204 		28
v -131.5712 		-148.5845 		28
v -160.5851 		-161.6508 		27
v -153.5982 		-151.2394 		24.5
v -127.574 		-152.2574 		28
v -128.1751 		-151.5626 		28
v -156.1647 		-153.6691 		24.5
v -129.4658 		-153.288 		28
v -128.3267 		-154.7618 		28
v -126.1539 		-154.2049 		28
v -126.7666 		-153.3091 		28
v -155.1415 		-152.5764 		24.5
v -131.9323 		-150.9342 		28
v -130.9712 		-151.7437 		28
v -143.0005 		-147.1671 		28
v -139.4266 		-182.5293 		27
v -142.9984 		-147.1134 		27.6293
v -127.2709 		-156.4588 		28
v -148.9126 		-170.8726 		1.5
v -147.9188 		-171.7263 		1.5
v -147.4251 		-172.0579 		1.5
v -126.4561 		-158.1916 		28
v -136.3358 		-146.1401 		28
v -137.6527 		-145.7253 		28
v -142.9984 		-147.1298 		27.8288
v -137.6875 		-147.9108 		28
v -136.3474 		-148.3845 		28
v -139.4266 		-182.5293 		28
v -142.9984 		-147.1291 		28
v -135.1704 		-148.9066 		28
v -162.9368 		-163.3046 		28
v -141.0088 		-147.216 		28
v -162.6916 		-161.5508 		28
v -143.0005 		-145.002 		28
v -143.0005 		-183.3826 		26.1103
v -142.77 		-145 		28
v -139.0802 		-145.3885 		28
v -143.0005 		-183.3826 		26.5
v -160.7977 		-163.0962 		28
v -146.8145 		-172.4074 		1.5
v -145.6492 		-172.899 		1.5
v -145.007 		-173.0854 		1.5
v -144.2311 		-173.2338 		1.5
v -143.1553 		-173.3264 		1.5
v -142.9984 		-145.0101 		28
v -160.6188 		-161.835 		28
v -161.3904 		-163.9236 		25.5
v -161.4136 		-165.7806 		25.5
v -139.3855 		-147.477 		28
v -161.4178 		-164.4078 		26.5
v -142.9984 		-182.683 		24.8174
v -161.4136 		-165.7806 		26.5
v -125.7139 		-160.3559 		28
v -123.4874 		-160.5823 		28
v -125.3149 		-162.2561 		28
v -123.2242 		-161.9887 		28
v -160.8956 		-164.6247 		27
v -125.1044 		-165.3753 		28
v -138.5623 		-148.2076 		24.5
v -125.137 		-163.8583 		28
v -159.2976 		-158.9843 		24.5
v -123.0358 		-163.7246 		28
v -143.0005 		-182.7413 		24.8699
v -125.2023 		-166.9038 		28
v -137.0906 		-148.6687 		24.5
v -158.5596 		-157.2968 		24.5
v -123.0632 		-166.6954 		28
v -125.3812 		-168.165 		28
v -125.7086 		-169.623 		28
v -135.401 		-149.3803 		24.5
v -123.7516 		-170.4536 		28
v -123.3084 		-168.4492 		28
v -124.0727 		-171.4884 		28
v -157.4859 		-155.4103 		24.5
v -124.9265 		-173.558 		28
v -141.0814 		-183.3188 		26.5
v -126.8666 		-172.7485 		28
v -160.8956 		-164.6247 		28
v -161.2767 		-167.3702 		25.5
v -143.0005 		-155.1497 		5.9743
v -127.9635 		-174.7097 		28
v -129.2847 		-176.4972 		28
v -126.1308 		-175.7551 		28
v -128.4573 		-178.7311 		28
v -126.7245 		-176.6299 		28
v -142.9984 		-155.2424 		5.6922
v -161.2767 		-167.3702 		26.5
v -142.2205 		-183.403 		26.5
v -142.9984 		-183.395 		26.0524
v -142.9984 		-183.4093 		26.5
v -143.0005 		-183.3916 		25.5
v -160.863 		-166.1417 		27
v -142.311 		-183.4083 		25.5
v -142.9984 		-183.3986 		25.5
v -162.9642 		-166.2754 		28
v -140.9867 		-182.7788 		28
v -142.9984 		-147.651 		24.5
v -142.0731 		-147.6539 		24.5
v -143.0005 		-184.9899 		28
v -143.0005 		-182.871 		28
v -132.6408 		-168.8219 		9.425
v -142.9984 		-182.8329 		28
v -160.6851 		-167.7439 		28
v -142.9984 		-184.9979 		28
v -160.863 		-166.1417 		28
v -141.3972 		-184.9253 		28
v -143.0005 		-147.645 		24.5
v -143.7374 		-183.4072 		25.5
v -144.6028 		-145.0747 		28
v -146.5734 		-147.4707 		28
v -133.1092 		-169.8946 		9.425
v -155.3573 		-152.7869 		18.867
v -160.3419 		-164.0815 		24.5
v -145.0133 		-147.2212 		28
v -154.2183 		-151.7405 		18.867
v -152.9582 		-150.7699 		18.867
v -147.444 		-145.5011 		28
v -148.9736 		-145.9159 		28
v -149.7053 		-148.4087 		28
v -148.3462 		-147.9244 		28
v -150.939 		-146.6475 		28
v -160.3387 		-166.108 		24.5
v -150.8622 		-148.9266 		28
v -143.7164 		-182.8819 		27
v -145.0396 		-182.7777 		27
v -140.2624 		-147.8508 		24.5
v -131.3912 		-169.5914 		8.78
v -143.9827 		-183.3978 		26.5
v -131.087 		-168.7219 		8.78
v -156.4258 		-153.9881 		18.867
v -133.6872 		-170.9347 		9.425
v -161.0735 		-156.442 		28
v -161.9273 		-158.5116 		28
v -159.5439 		-171.8084 		28
v -134.3283 		-171.8337 		9.425
v -141.5088 		-182.8209 		27
v -158.7291 		-173.5412 		28
v -157.1511 		-150.8584 		20
v -143.23 		-185 		28
v -158.5365 		-152.3943 		20
v -162.2378 		-159.498 		20
v -162.48 		-160.4307 		20
v -132.7302 		-172.0895 		8.78
v -159.7492 		-154.0565 		20
v -162.8242 		-162.2877 		20
v -144.9912 		-182.784 		28
v -142.9984 		-182.8725 		27
v -146.4976 		-183.0883 		25.5
v -142.9984 		-183.0601 		26.8317
v -145.7871 		-183.2104 		26.5
v -158.9123 		-158.0295 		18.867
v -160.2861 		-169.6441 		28
v -131.7712 		-170.4462 		8.78
v -158.2817 		-156.742 		18.867
v -162.7758 		-168.0113 		28
v -162.5126 		-169.4177 		28
v -162.0599 		-171.0736 		28
v -160.3387 		-163.8983 		18.867
v -160.3703 		-165.369 		18.867
v -161.4083 		-172.8285 		28
v -160.2735 		-166.8575 		18.867
v -157.4859 		-155.4103 		18.867
v -146.9198 		-184.6115 		28
v -146.6145 		-182.523 		28
v -142.9984 		-182.8444 		27.5884
v -148.3125 		-182.0892 		28
v -143.0005 		-183.0416 		26.8502
v -148.3473 		-184.2747 		28
v -142.9984 		-147.651 		22.7023
v -143.0005 		-182.8866 		27
v -149.6526 		-181.6155 		28
v -150.8296 		-181.0934 		28
v -143.0005 		-184.9981 		25.1221
v -149.6642 		-183.8599 		28
v -162.9589 		-163.6573 		20
v -143.0005 		-184.9889 		27.2101
v -155.0288 		-178.2563 		28
v -134.1693 		-173.8212 		8.78
v -143.0005 		-147.6411 		20.621
v -163 		-165.4479 		20
v -143.0005 		-182.8866 		27.6302
v -152.1391 		-180.3902 		28
v -152.8897 		-179.9217 		28
v -162.8242 		-167.7155 		20
v -143.0005 		-182.8702 		27.8292
v -154.0677 		-179.0658 		28
v -155.7931 		-180.3796 		28
v -154.4288 		-181.4155 		28
v -151.7496 		-182.9862 		28
v -156.5342 		-176.712 		28
v -133.305 		-172.8633 		8.78
v -159.2334 		-176.6909 		28
v -158.426 		-177.7426 		28
v -157.8249 		-178.4374 		28
v -156.529 		-179.7396 		28
v -149.2663 		-182.3208 		25.5
v -160.5556 		-170.5947 		25.5
v -147.7062 		-182.8104 		25.5
v -160.9283 		-169.2619 		25.5
v -125.5739 		-158.999 		26.5
v -148.9726 		-182.4293 		26.5
v -136.3589 		-181.045 		24.5
v -160.4261 		-171.001 		26.5
v -137.8106 		-181.5734 		24.5
v -143.0005 		-154.8994 		1.9074
v -161.0977 		-168.4713 		26.5
v -123.9085 		-159.0285 		20
v -160.2861 		-154.926 		20
v -160.7746 		-155.8145 		20
v -147.5714 		-182.3019 		27
v -124.3948 		-157.6357 		20
v -137.0874 		-159.1274 		1.5
v -138.0812 		-158.2737 		1.5
v -138.5749 		-157.9421 		1.5
v -124.7854 		-156.7178 		20
v -161.9462 		-158.5663 		20
v -160.5809 		-168.3713 		27
v -160.2861 		-169.6441 		27
v -143.0005 		-182.349 		24.5
v -139.5318 		-182.0145 		24.5
v -135.0673 		-172.678 		9.425
v -143.0005 		-145 		21.1429
v -150.6885 		-181.7461 		25.5
v -140.993 		-182.2493 		24.5
v -136.1589 		-173.6559 		9.425
v -150.3137 		-181.9082 		26.5
v -143.0005 		-156.6858 		1.5
v -142.5521 		-182.3566 		24.5
v -142.9984 		-156.679 		1.5
v -142.8447 		-156.6736 		1.5
v -137.8433 		-148.414 		18.867
v -142.9984 		-182.355 		24.5
v -140.993 		-156.9146 		1.5
v -141.7689 		-156.7662 		1.5
v -135.7505 		-149.2109 		18.867
v -149.4926 		-181.6787 		27
v -140.3508 		-157.101 		1.5
v -134.5904 		-149.8056 		18.867
v -139.1855 		-157.5926 		1.5
v -162.48 		-169.5725 		20
v -143.0005 		-182.349 		22.7067
v -138.1738 		-174.9255 		9.425
v -150.8296 		-181.0934 		27
v -131.7933 		-150.3762 		25.5
v -162.0915 		-170.9715 		20
v -134.1598 		-148.8392 		25.5
v -161.6052 		-172.3643 		20
v -161.2146 		-173.2822 		20
v -138.1128 		-176.4783 		8.78
v -134.1598 		-148.8392 		26.5
v -142.9984 		-182.359 		20.6154
v -132.6692 		-149.7446 		26.5
v -131.4607 		-150.632 		26.5
v -142.9984 		-185 		20.9796
v -143.9269 		-182.3461 		24.5
v -145.7376 		-182.1492 		24.5
v -135.1704 		-146.5959 		20
v -136.5569 		-146.0601 		20
v -133.8609 		-149.6098 		27
v -137.9549 		-145.6474 		20
v -133.1103 		-150.0783 		27
v -135.7157 		-180.7702 		18.867
v -147.4377 		-181.7924 		24.5
v -136.1642 		-175.4424 		8.78
v -142.0731 		-147.6539 		18.867
v -137.4517 		-181.4608 		18.867
v -148.9094 		-181.3313 		24.5
v -145.8313 		-154.3334 		9.425
v -138.5307 		-181.7808 		18.867
v -144.3933 		-154.0576 		9.425
v -134.1304 		-150.0625 		24.5
v -150.599 		-180.6197 		24.5
v -135.2599 		-174.7771 		8.78
v -140.3098 		-147.8413 		18.867
v -138.4212 		-184.4705 		20
v -133.4008 		-150.5173 		18.867
v -137.0222 		-184.082 		20
v -135.6294 		-183.5957 		20
v -140.1687 		-175.6666 		9.425
v -142.9984 		-155.4936 		0.0892
v -129.5995 		-150.1425 		20
v -141.6067 		-175.9424 		9.425
v -130.3848 		-149.4698 		20
v -139.1865 		-148.0529 		18.867
v -132.047 		-148.2571 		20
v -125.4444 		-159.4053 		25.5
v -125.0717 		-160.7381 		25.5
v -132.9166 		-147.7202 		20
v -134.7115 		-183.2051 		20
v -133.8051 		-147.2318 		20
v -144.4154 		-152.6069 		8.78
v -153.3592 		-161.1781 		9.425
v -142.9984 		-176.0216 		9.425
v -142.9984 		-147.6492 		18.867
v -143.9269 		-182.3461 		18.867
v -152.8908 		-160.1054 		9.425
v -145.6902 		-182.1587 		18.867
v -146.8135 		-181.9471 		18.867
v -125.7139 		-160.3559 		27
v -143.0005 		-182.3508 		18.867
v -143.0005 		-176.0243 		9.425
v -145.5692 		-152.7932 		8.78
v -129.3447 		-152.6238 		25.5
v -141.1256 		-182.2598 		18.867
v -124.7233 		-162.6298 		25.5
v -142.671 		-182.3619 		18.867
v -143.0005 		-147.6411 		18.867
v -124.9023 		-161.5287 		26.5
v -154.2288 		-159.5538 		8.78
v -124.7233 		-162.6298 		26.5
v -146.6471 		-184.6694 		20
v -147.8872 		-153.5217 		8.78
v -142.9984 		-182.359 		18.867
v -145.7218 		-184.8179 		20
v -125.4191 		-161.6287 		27
v -144.3522 		-184.9526 		20
v -148.1567 		-181.586 		18.867
v -150.2495 		-180.7891 		18.867
v -151.4096 		-180.1944 		18.867
v -154.6088 		-160.4086 		8.78
v -127.5551 		-154.9503 		25.5
v -124.5864 		-164.2194 		25.5
v -129.0678 		-152.9438 		26.5
v -124.5822 		-165.5922 		26.5
v -128.5131 		-153.6175 		25.5
v -124.5864 		-164.2194 		26.5
v -142.9984 		-184.9998 		20
v -142.9984 		-184.6036 		19.4095
v -142.9921 		-185 		20
v -141.6478 		-184.9495 		20
v -154.913 		-161.2781 		8.78
v -125.1044 		-165.3753 		27
v -139.815 		-184.741 		20
v -125.137 		-163.8583 		27
v -153.9119 		-163.3036 		9.425
v -153.6761 		-162.1771 		9.425
v -129.4658 		-153.288 		27
v -149.8358 		-154.5576 		8.78
v -128.4741 		-154.5386 		27
v -143.0005 		-184.985 		20
v -150.8296 		-183.4041 		20
v -155.2931 		-162.8751 		8.78
v -149.4431 		-183.9399 		20
v -124.7222 		-167.3586 		25.5
v -124.6096 		-166.0764 		25.5
v -148.0451 		-184.3526 		20
v -124.7622 		-167.5618 		26.5
v -150.9327 		-157.322 		9.425
v -130.6174 		-151.3542 		25.5
v -125.2023 		-166.9038 		27
v -149.8411 		-156.3441 		9.425
v -155.3826 		-178.6458 		25.5
v -154.0224 		-164.4089 		9.425
v -130.2332 		-151.7163 		26.5
v -131.7902 		-151.0426 		27
v -139.3529 		-145.3306 		20
v -153.674 		-167.8313 		9.425
v -140.2782 		-145.1821 		20
v -155.7668 		-178.2837 		26.5
v -153.9119 		-166.7038 		9.425
v -141.6478 		-145.0474 		20
v -137.6769 		-160.2517 		1.5
v -143.0005 		-145.0003 		20
v -143.0005 		-145.4625 		19.3111
v -135.96 		-161.1507 		1.5
v -147.8262 		-155.0745 		9.425
v -125.6581 		-165.9185 		24.5
v -136.2926 		-160.776 		1.5
v -130.3006 		-152.3806 		27
v -136.6379 		-160.5286 		1.5
v -155.6994 		-177.6194 		27
v -136.9453 		-160.3854 		1.5
v -142.9984 		-145.0151 		20
v -154.0203 		-165.7195 		9.425
v -136.1158 		-160.3054 		1.5
v -125.6613 		-163.892 		24.5
v -154.2067 		-179.6238 		25.5
v -126.8087 		-156.2072 		25.5
v -126.215 		-157.3883 		25.5
v -153.3308 		-180.2554 		26.5
v -154.5393 		-179.368 		26.5
v -143.0005 		-182.5399 		16.357
v -155.4573 		-164.3015 		8.78
v -127.2519 		-155.4377 		26.5
v -150.7401 		-155.2229 		8.78
v -155.4541 		-165.8406 		8.78
v -126.215 		-157.3883 		26.5
v -152.1391 		-180.3902 		27
v -135.6536 		-161.8097 		1.5
v -135.5715 		-162.3572 		1.5
v -152.8897 		-179.9217 		27
v -134.9873 		-162.7056 		1.5
v -135.3294 		-161.7455 		1.5
v -154.2098 		-178.9574 		27
v -127.7014 		-155.7114 		27
v -125.7265 		-163.1425 		18.867
v -126.8803 		-157.221 		27
v -155.3236 		-166.9838 		8.78
v -126.5971 		-156.5967 		26.5
v -123.1758 		-162.2845 		20
v -123.52 		-160.4275 		20
v -126.2171 		-158.7769 		27
v -142.9984 		-177.7814 		12.038
v -125.6613 		-166.1006 		18.867
v -125.6297 		-164.631 		18.867
v -151.8402 		-181.1607 		25.5
v -144.3796 		-175.9467 		9.425
v -143.0005 		-160.2549 		1.5
v -142.9984 		-178.0487 		9.6511
v -141.5846 		-177.3931 		8.78
v -151.8402 		-181.1607 		26.5
v -123.1758 		-167.7123 		20
v -142.9984 		-160.2517 		1.5
v -145.5944 		-175.7319 		9.425
v -123.0411 		-166.3427 		20
v -133.0745 		-150.7447 		24.5
v -131.3249 		-152.1342 		24.5
v -123 		-164.5521 		20
v -135.5715 		-167.6397 		1.5
v -135.5968 		-167.9492 		1.5
v -146.824 		-175.3392 		9.425
v -134.2925 		-158.2221 		9.425
v -134.9441 		-167.1291 		1.5
v -134.7662 		-166.2796 		1.5
v -134.6736 		-164.6247 		1.5
v -134.7662 		-163.7141 		1.5
v -130.3995 		-153.0417 		24.5
v -124.9949 		-168.9008 		25.5
v -142.9984 		-177.4623 		8.78
v -125.4381 		-170.5704 		25.5
v -125.4381 		-170.5704 		26.5
v -140.4309 		-177.2068 		8.78
v -156.6553 		-177.3762 		25.5
v -132.7302 		-157.9073 		8.78
v -152.3128 		-159.0653 		9.425
v -129.6026 		-153.9344 		24.5
v -151.6717 		-158.1663 		9.425
v -156.9322 		-177.0562 		26.5
v -125.4149 		-168.3492 		27
v -143.0005 		-176.8392 		10.6322
v -156.5342 		-176.712 		27
v -125.0665 		-169.2345 		26.5
v -151.8307 		-156.1788 		8.78
v -133.5145 		-156.8894 		8.78
v -143.0005 		-177.4552 		8.78
v -148.8641 		-174.3549 		9.425
v -150.0232 		-173.5128 		9.425
v -152.695 		-157.1367 		8.78
v -150.8348 		-172.7832 		9.425
v -128.6352 		-155.2355 		24.5
v -127.733 		-156.7093 		24.5
v -151.8696 		-179.9375 		24.5
v -153.2698 		-157.9105 		8.78
v -152.9255 		-179.2553 		24.5
v -127.0129 		-158.201 		24.5
v -147.2609 		-147.0791 		25.5
v -154.6751 		-177.8658 		24.5
v -146.0966 		-146.8433 		25.5
v -125.7139 		-175.074 		20
v -125.2254 		-174.1855 		20
v -148.0536 		-174.8181 		9.425
v -146.2629 		-146.8696 		26.5
v -124.0538 		-171.4337 		20
v -155.6005 		-176.9583 		24.5
v -144.9186 		-146.6812 		26.5
v -143.7795 		-146.597 		26.5
v -143.689 		-146.5917 		25.5
v -130.0016 		-153.488 		18.867
v -123.7622 		-170.502 		20
v -129.0194 		-154.685 		18.867
v -142.9984 		-174.8403 		5.945
v -123.52 		-169.5693 		20
v -151.117 		-174.4792 		8.78
v -144.4912 		-147.1791 		27
v -146.5734 		-147.4707 		27
v -126.2508 		-154.0533 		20
v -127.4635 		-152.3911 		20
v -128.492 		-151.231 		20
v -148.4557 		-176.2225 		8.78
v -143.0005 		-174.7674 		5.7209
v -142.9984 		-147.4664 		16.3476
v -131.8891 		-151.6447 		18.867
v -131.2501 		-152.1995 		18.867
v -125.8076 		-167.5134 		24.5
v -151.138 		-148.474 		25.5
v -126.4476 		-159.7254 		24.5
v -152.5992 		-179.4827 		18.867
v -126.0539 		-161.1634 		24.5
v -148.5031 		-147.4223 		25.5
v -154.1109 		-178.3553 		18.867
v -154.7499 		-177.8005 		18.867
v -136.2558 		-169.1882 		1.5
v -135.9547 		-168.844 		1.5
v -150.2306 		-148.0645 		26.5
v -125.7665 		-162.7656 		24.5
v -135.7389 		-168.4513 		1.5
v -148.5031 		-147.4223 		26.5
v -150.0211 		-147.9718 		25.5
v -135.8958 		-169.3314 		1.5
v -135.2925 		-168.1545 		1.5
v -127.933 		-156.343 		18.867
v -127.354 		-157.4494 		18.867
v -143.1616 		-156.6778 		1.5
v -144.0006 		-156.7357 		1.5
v -144.9112 		-156.8946 		1.5
v -145.6639 		-157.1094 		1.5
v -146.3071 		-157.3578 		1.5
v -147.203 		-157.8084 		1.5
v -125.8486 		-167.7376 		18.867
v -155.6152 		-180.5302 		20
v -126.1055 		-160.9718 		18.867
v -126.5698 		-159.3411 		18.867
v -148.3462 		-147.9244 		27
v -149.7053 		-148.4087 		27
v -153.953 		-181.7429 		20
v -153.0834 		-182.2798 		20
v -147.9335 		-158.2874 		1.5
v -152.1949 		-182.7682 		20
v -136.7337 		-147.6792 		25.5
v -138.2938 		-147.1896 		25.5
v -158.5365 		-177.6089 		20
v -147.4019 		-157.9284 		1.5
v -135.3115 		-148.2539 		25.5
v -157.508 		-178.769 		20
v -137.0274 		-147.5707 		26.5
v -156.4005 		-179.8575 		20
v -137.3148 		-169.7135 		1.5
v -137.6769 		-169.7451 		1.5
v -136.7727 		-169.5304 		1.5
v -153.2066 		-169.1998 		9.425
v -135.6863 		-148.0918 		26.5
v -126.0339 		-172.1832 		25.5
v -150.8622 		-148.9266 		27
v -138.0665 		-171.7126 		1.5
v -136.7495 		-170.4999 		1.5
v -154.8973 		-168.725 		8.78
v -125.9392 		-170.4115 		27
v -138.4286 		-147.6981 		27
v -126.5182 		-171.9779 		27
v -146.4682 		-147.9855 		24.5
v -138.5981 		-172.0716 		1.5
v -136.5074 		-148.3213 		27
v -160.0608 		-159.5885 		27
v -145.007 		-147.7507 		24.5
v -151.7075 		-171.7779 		9.425
v -126.7919 		-173.7591 		25.5
v -143.4479 		-147.6434 		24.5
v -143.0005 		-169.7483 		1.5
v -152.5023 		-170.6136 		9.425
v -126.1234 		-172.3937 		26.5
v -142.9984 		-169.7451 		1.5
v -160.1924 		-162.4866 		24.5
v -138.797 		-172.1916 		1.5
v -137.5443 		-153.7775 		8.78
v -126.7919 		-173.7591 		26.5
v -159.9682 		-161.2771 		24.5
v -127.2551 		-173.5086 		27
v -154.3656 		-170.1672 		8.78
v -138.6886 		-153.2912 		8.78
v -160.2335 		-167.2344 		24.5
v -153.2698 		-172.0927 		8.78
v -127.712 		-175.2761 		25.5
v -135.1704 		-148.9066 		27
v -128.6636 		-176.573 		25.5
v -142.9984 		-173.3142 		1.5
v -142.8384 		-173.3222 		1.5
v -141.9994 		-173.2643 		1.5
v -141.0888 		-173.1054 		1.5
v -140.3361 		-172.8906 		1.5
v -139.6929 		-172.6422 		1.5
v -127.4625 		-174.9066 		26.5
v -149.6411 		-148.955 		24.5
v -160.1514 		-162.2624 		18.867
v -142.9984 		-153.1546 		10.6415
v -128.4467 		-176.2888 		26.5
v -143.0005 		-152.2333 		12.0161
v -148.1894 		-148.4266 		24.5
v -159.4376 		-159.3653 		18.867
v -147.3114 		-176.7088 		8.78
v -128.3531 		-175.2771 		27
v -143.0005 		-174.5125 		0.1071
v -152.4855 		-173.1106 		8.78
v -142.9984 		-145.0019 		25.1353
v -142.9984 		-175.1024 		1.9125
v -143.0005 		-173.321 		1.5
v -145.7144 		-177.172 		8.78
v -129.8637 		-177.9121 		25.5
v -142.9984 		-145.0111 		27.2138
v -144.8744 		-147.7402 		18.867
v -126.0318 		-168.7229 		24.5
v -143.329 		-147.6381 		18.867
v -143.8501 		-177.4341 		8.78
v -126.7024 		-171.0157 		24.5
v -129.6047 		-177.6468 		26.5
v -159.7829 		-171.2231 		27
v -143.0005 		-147.3162 		24.8181
v -127.4404 		-172.7032 		24.5
v -129.4363 		-176.6751 		27
v -143.0005 		-147.1275 		27
v -148.6852 		-160.2865 		1.5
v -148.3231 		-160.2549 		1.5
v -159.1913 		-173.7928 		25.5
v -149.2273 		-160.4696 		1.5
v -143.0079 		-145 		20
v -144.3522 		-145.0505 		20
v -159.785 		-172.6117 		25.5
v -149.7442 		-160.8118 		1.5
v -150.0453 		-161.156 		1.5
v -128.5141 		-174.5897 		24.5
v -150.1042 		-160.6686 		1.5
v -159.785 		-172.6117 		26.5
v -142.9984 		-147.2577 		24.8708
v -146.185 		-145.259 		20
v -149.2505 		-159.5001 		1.5
v -158.2986 		-174.2886 		27
v -159.1197 		-172.779 		27
v -159.4029 		-173.4033 		26.5
v -147.5788 		-145.5295 		20
v -148.9778 		-145.918 		20
v -129.8353 		-176.3309 		24.5
v -158.4449 		-175.0497 		25.5
v -157.4869 		-176.3825 		25.5
v -143.0005 		-153.9783 		9.425
v -142.9984 		-153.9758 		9.425
v -141.6204 		-154.0533 		9.425
v -126.5624 		-170.6347 		18.867
v -127.0877 		-171.9706 		18.867
# 902 vertices

g group_0_3356795

usemtl color_3356795
s 0

f 10 	3 	2
f 3 	10 	8
f 11 	8 	10
f 16 	4 	18
f 34 	94 	33
f 3 	8 	41
f 41 	8 	78
f 14 	25 	29
f 29 	37 	14
f 37 	29 	31
f 14 	37 	43
f 45 	42 	2
f 45 	2 	3
f 3 	41 	45
f 47 	43 	37
f 50 	51 	8
f 46 	8 	51
f 46 	51 	52
f 46 	52 	53
f 4 	43 	18
f 17 	54 	131
f 78 	8 	46
f 54 	73 	131
f 64 	94 	63
f 33 	94 	32
f 35 	94 	34
f 32 	94 	64
f 62 	63 	94
f 18 	43 	65
f 65 	43 	47
f 67 	65 	47
f 70 	71 	88
f 71 	72 	88
f 68 	69 	89
f 75 	59 	60
f 31 	192 	37
f 37 	192 	195
f 74 	27 	77
f 61 	62 	94
f 28 	77 	27
f 76 	77 	28
f 28 	85 	83
f 80 	83 	85
f 68 	80 	85
f 28 	83 	76
f 80 	68 	89
f 56 	151 	82
f 89 	69 	88
f 29 	25 	87
f 94 	35 	74
f 27 	74 	35
f 29 	87 	31
f 99 	79 	101
f 69 	70 	88
f 31 	87 	98
f 105 	102 	91
f 72 	66 	103
f 56 	48 	177
f 103 	88 	72
f 66 	107 	103
f 177 	151 	56
f 104 	103 	107
f 115 	113 	107
f 104 	107 	113
f 40 	39 	169
f 115 	116 	112
f 106 	6 	7
f 169 	172 	40
f 113 	115 	112
f 21 	309 	109
f 111 	112 	116
f 111 	123 	119
f 119 	124 	118
f 114 	96 	95
f 114 	117 	96
f 117 	120 	97
f 116 	123 	111
f 39 	166 	169
f 97 	96 	117
f 124 	132 	118
f 92 	63 	108
f 124 	119 	123
f 628 	51 	50
f 125 	101 	73
f 154 	129 	133
f 118 	132 	129
f 19 	20 	131
f 82 	149 	100
f 52 	51 	649
f 19 	131 	79
f 134 	128 	59
f 154 	147 	129
f 79 	131 	101
f 134 	59 	75
f 148 	155 	129
f 63 	62 	108
f 148 	129 	147
f 133 	129 	132
f 109 	309 	86
f 141 	136 	134
f 156 	136 	158
f 158 	136 	141
f 141 	134 	75
f 153 	129 	155
f 140 	87 	90
f 91 	141 	75
f 90 	138 	140
f 82 	151 	149
f 141 	102 	158
f 102 	141 	91
f 145 	87 	140
f 164 	93 	175
f 178 	173 	93
f 101 	131 	73
f 98 	87 	145
f 164 	162 	93
f 98 	145 	152
f 159 	134 	161
f 134 	159 	128
f 62 	555 	108
f 162 	163 	93
f 58 	93 	165
f 163 	165 	93
f 69 	68 	160
f 175 	93 	173
f 136 	210 	200
f 68 	176 	160
f 134 	136 	161
f 177 	805 	151
f 180 	97 	413
f 167 	84 	81
f 171 	173 	178
f 168 	84 	167
f 57 	168 	174
f 136 	156 	210
f 57 	84 	168
f 143 	667 	181
f 126 	57 	174
f 192 	31 	98
f 40 	172 	48
f 190 	191 	188
f 159 	186 	282
f 48 	172 	177
f 189 	185 	186
f 159 	189 	186
f 159 	161 	189
f 191 	170 	182
f 179 	182 	170
f 182 	188 	191
f 178 	179 	171
f 170 	171 	179
f 125 	73 	813
f 489 	187 	184
f 194 	70 	160
f 192 	197 	195
f 188 	42 	190
f 45 	121 	42
f 315 	316 	823
f 200 	196 	189
f 223 	150 	78
f 150 	142 	78
f 99 	101 	292
f 201 	47 	37
f 201 	37 	195
f 189 	161 	200
f 206 	201 	195
f 219 	202 	203
f 41 	78 	137
f 210 	196 	200
f 122 	121 	41
f 161 	136 	200
f 190 	42 	121
f 45 	41 	121
f 245 	195 	233
f 193 	187 	488
f 142 	139 	78
f 264 	150 	223
f 122 	41 	137
f 139 	137 	78
f 221 	201 	206
f 195 	245 	206
f 209 	240 	214
f 213 	217 	294
f 294 	295 	213
f 212 	167 	81
f 203 	204 	219
f 213 	127 	209
f 201 	221 	67
f 240 	241 	214
f 201 	67 	47
f 222 	221 	206
f 211 	215 	214
f 206 	245 	222
f 214 	215 	217
f 214 	213 	209
f 226 	230 	225
f 230 	264 	225
f 214 	217 	213
f 216 	700 	208
f 53 	236 	46
f 211 	241 	226
f 223 	225 	264
f 228 	46 	236
f 195 	227 	233
f 231 	228 	236
f 195 	197 	227
f 259 	260 	127
f 236 	237 	231
f 263 	274 	233
f 234 	220 	224
f 234 	224 	238
f 263 	233 	227
f 235 	231 	237
f 215 	235 	237
f 217 	215 	294
f 237 	294 	215
f 238 	224 	239
f 230 	226 	241
f 239 	224 	185
f 34 	33 	218
f 19 	79 	863
f 239 	185 	189
f 33 	32 	218
f 211 	214 	241
f 258 	127 	256
f 146 	253 	127
f 320 	863 	292
f 99 	292 	863
f 238 	244 	234
f 248 	244 	238
f 257 	222 	245
f 125 	813 	324
f 256 	127 	254
f 248 	239 	196
f 258 	259 	127
f 252 	322 	249
f 552 	255 	251
f 238 	239 	248
f 253 	254 	127
f 209 	261 	240
f 252 	249 	202
f 252 	202 	219
f 260 	261 	127
f 209 	127 	261
f 479 	495 	263
f 285 	293 	266
f 265 	266 	297
f 225 	231 	226
f 196 	239 	189
f 269 	244 	248
f 231 	235 	226
f 272 	269 	248
f 226 	235 	215
f 276 	277 	288
f 262 	229 	690
f 272 	248 	196
f 273 	277 	271
f 107 	66 	262
f 210 	272 	196
f 274 	263 	268
f 79 	99 	863
f 270 	271 	277
f 273 	288 	277
f 278 	275 	252
f 128 	159 	279
f 281 	283 	280
f 267 	289 	281
f 46 	228 	223
f 223 	78 	46
f 223 	228 	225
f 303 	257 	245
f 283 	284 	280
f 286 	280 	284
f 285 	286 	284
f 285 	284 	293
f 225 	228 	231
f 159 	282 	287
f 267 	276 	289
f 215 	211 	226
f 159 	287 	279
f 291 	245 	233
f 283 	281 	289
f 288 	289 	276
f 291 	303 	245
f 296 	823 	295
f 291 	233 	274
f 297 	266 	293
f 278 	252 	219
f 125 	300 	101
f 101 	300 	292
f 59 	128 	279
f 125 	307 	300
f 278 	219 	204
f 301 	302 	298
f 298 	302 	270
f 305 	270 	302
f 304 	300 	307
f 270 	305 	271
f 60 	59 	279
f 199 	874 	309
f 316 	317 	823
f 860 	823 	319
f 317 	318 	823
f 319 	823 	318
f 304 	320 	300
f 320 	304 	311
f 321 	314 	275
f 292 	300 	320
f 275 	278 	321
f 279 	106 	60
f 246 	321 	278
f 279 	287 	390
f 307 	125 	324
f 834 	64 	92
f 322 	252 	325
f 307 	324 	312
f 299 	312 	324
f 254 	861 	256
f 290 	199 	309
f 97 	120 	413
f 307 	311 	304
f 312 	311 	307
f 298 	299 	301
f 324 	301 	299
f 323 	322 	325
f 327 	323 	325
f 329 	265 	328
f 328 	330 	329
f 466 	130 	453
f 207 	205 	419
f 331 	329 	330
f 330 	335 	331
f 326 	369 	368
f 325 	252 	332
f 503 	326 	368
f 252 	275 	332
f 337 	331 	335
f 337 	335 	333
f 339 	342 	333
f 334 	340 	794
f 336 	341 	220
f 342 	339 	347
f 337 	333 	342
f 794 	795 	334
f 332 	327 	325
f 343 	347 	339
f 344 	347 	343
f 224 	220 	341
f 346 	347 	344
f 346 	344 	348
f 351 	274 	268
f 224 	341 	349
f 332 	367 	327
f 297 	328 	265
f 348 	344 	352
f 332 	275 	353
f 314 	353 	275
f 332 	353 	380
f 185 	224 	349
f 356 	358 	352
f 348 	352 	350
f 744 	404 	262
f 357 	360 	356
f 323 	354 	397
f 323 	397 	388
f 350 	352 	358
f 376 	902 	901
f 811 	142 	150
f 186 	185 	349
f 358 	356 	360
f 360 	357 	359
f 359 	357 	16
f 323 	327 	354
f 362 	354 	327
f 506 	340 	334
f 363 	364 	365
f 510 	345 	340
f 67 	84 	65
f 65 	57 	18
f 186 	349 	282
f 345 	513 	546
f 18 	57 	16
f 359 	16 	57
f 362 	327 	367
f 57 	65 	84
f 81 	84 	67
f 313 	451 	310
f 268 	499 	368
f 255 	212 	222
f 221 	222 	212
f 67 	221 	81
f 212 	81 	221
f 222 	257 	255
f 303 	251 	257
f 255 	257 	251
f 303 	371 	251
f 381 	251 	371
f 282 	349 	405
f 374 	375 	414
f 366 	338 	383
f 376 	901 	250
f 444 	373 	372
f 380 	378 	367
f 377 	379 	381
f 377 	381 	371
f 509 	508 	22
f 494 	530 	338
f 268 	368 	351
f 380 	367 	332
f 376 	386 	902
f 363 	351 	368
f 249 	322 	388
f 389 	290 	384
f 364 	363 	368
f 369 	364 	368
f 383 	310 	366
f 384 	392 	389
f 309 	384 	290
f 395 	385 	392
f 394 	395 	393
f 287 	282 	387
f 95 	96 	105
f 393 	395 	392
f 385 	389 	392
f 386 	1 	902
f 388 	322 	323
f 393 	396 	394
f 387 	390 	287
f 396 	95 	398
f 279 	390 	391
f 399 	442 	403
f 388 	434 	433
f 156 	158 	97
f 96 	97 	102
f 210 	156 	180
f 102 	105 	96
f 398 	394 	396
f 105 	398 	95
f 310 	383 	403
f 313 	310 	403
f 310 	448 	366
f 106 	279 	391
f 102 	97 	158
f 397 	434 	388
f 97 	180 	156
f 455 	370 	306
f 106 	391 	6
f 455 	459 	370
f 180 	205 	210
f 365 	364 	379
f 459 	430 	370
f 207 	272 	205
f 407 	269 	207
f 308 	242 	417
f 272 	207 	269
f 262 	404 	107
f 210 	205 	272
f 408 	269 	407
f 9 	1 	386
f 246 	269 	408
f 411 	274 	351
f 406 	410 	5
f 386 	406 	9
f 450 	306 	308
f 5 	9 	406
f 274 	411 	291
f 387 	282 	405
f 23 	514 	184
f 409 	435 	412
f 363 	411 	351
f 30 	467 	36
f 30 	36 	412
f 414 	451 	374
f 242 	308 	246
f 375 	460 	421
f 321 	246 	308
f 246 	408 	242
f 411 	303 	291
f 321 	308 	314
f 728 	584 	419
f 363 	424 	411
f 422 	411 	424
f 383 	530 	423
f 353 	314 	306
f 308 	306 	314
f 413 	415 	180
f 415 	205 	180
f 371 	303 	411
f 415 	419 	205
f 380 	353 	370
f 306 	370 	353
f 383 	423 	403
f 416 	417 	242
f 243 	193 	487
f 425 	403 	423
f 372 	887 	444
f 417 	420 	308
f 378 	380 	430
f 370 	430 	380
f 425 	423 	476
f 697 	243 	487
f 431 	427 	378
f 450 	308 	420
f 431 	378 	430
f 428 	734 	55
f 735 	734 	428
f 428 	55 	418
f 365 	424 	363
f 409 	427 	432
f 435 	409 	432
f 431 	432 	427
f 30 	412 	435
f 402 	735 	428
f 400 	399 	425
f 379 	529 	381
f 375 	421 	414
f 439 	438 	421
f 414 	421 	438
f 425 	399 	403
f 107 	402 	428
f 422 	440 	411
f 441 	443 	439
f 438 	439 	443
f 440 	377 	371
f 440 	371 	411
f 313 	403 	442
f 400 	485 	439
f 336 	426 	341
f 442 	445 	451
f 446 	449 	441
f 341 	426 	429
f 835 	436 	397
f 399 	445 	442
f 397 	436 	434
f 447 	464 	446
f 414 	448 	451
f 443 	441 	449
f 464 	449 	446
f 464 	447 	457
f 591 	414 	438
f 313 	442 	451
f 341 	429 	437
f 439 	421 	400
f 456 	445 	399
f 349 	341 	437
f 661 	459 	455
f 400 	460 	399
f 456 	399 	460
f 400 	421 	460
f 461 	463 	458
f 456 	451 	445
f 460 	374 	456
f 375 	374 	460
f 374 	451 	456
f 448 	310 	451
f 463 	461 	462
f 462 	461 	452
f 464 	457 	463
f 457 	458 	463
f 405 	349 	437
f 470 	452 	469
f 452 	465 	469
f 468 	469 	465
f 462 	452 	470
f 36 	468 	465
f 468 	36 	467
f 450 	455 	306
f 377 	440 	379
f 422 	379 	440
f 55 	130 	418
f 424 	379 	422
f 123 	466 	453
f 365 	379 	424
f 369 	379 	364
f 130 	466 	418
f 192 	98 	477
f 476 	423 	473
f 401 	373 	549
f 197 	192 	477
f 476 	473 	471
f 479 	197 	477
f 582 	639 	454
f 478 	472 	474
f 336 	220 	203
f 478 	474 	481
f 639 	638 	454
f 481 	474 	354
f 197 	479 	227
f 481 	354 	362
f 220 	234 	204
f 220 	204 	203
f 227 	479 	263
f 485 	400 	425
f 555 	361 	157
f 489 	688 	488
f 476 	485 	425
f 500 	140 	138
f 265 	482 	486
f 488 	187 	489
f 492 	478 	481
f 488 	487 	193
f 251 	608 	550
f 492 	493 	478
f 407 	483 	484
f 486 	266 	265
f 552 	553 	212
f 486 	490 	266
f 483 	407 	207
f 212 	255 	552
f 28 	27 	218
f 419 	483 	207
f 35 	218 	27
f 621 	438 	443
f 408 	484 	491
f 441 	439 	485
f 492 	481 	362
f 35 	34 	218
f 338 	366 	448
f 511 	446 	441
f 242 	491 	416
f 491 	242 	408
f 496 	5 	410
f 268 	263 	495
f 547 	498 	471
f 5 	496 	138
f 499 	268 	495
f 138 	496 	500
f 681 	498 	547
f 484 	408 	407
f 476 	471 	501
f 427 	493 	492
f 677 	475 	574
f 367 	492 	362
f 355 	778 	502
f 501 	471 	498
f 686 	501 	498
f 499 	503 	368
f 688 	637 	488
f 427 	409 	493
f 504 	688 	505
f 492 	378 	427
f 503 	507 	326
f 367 	378 	492
f 505 	688 	509
f 511 	485 	476
f 508 	688 	512
f 509 	688 	508
f 809 	816 	500
f 523 	30 	435
f 511 	476 	501
f 489 	514 	688
f 512 	688 	514
f 518 	511 	501
f 441 	485 	511
f 510 	340 	506
f 504 	555 	94
f 494 	338 	516
f 501 	686 	518
f 361 	504 	505
f 502 	683 	93
f 517 	845 	844
f 513 	345 	510
f 811 	523 	522
f 361 	555 	504
f 688 	504 	94
f 521 	519 	527
f 527 	525 	521
f 503 	526 	507
f 515 	430 	459
f 527 	519 	528
f 447 	446 	518
f 431 	430 	515
f 518 	446 	511
f 381 	604 	605
f 515 	520 	431
f 431 	520 	432
f 604 	381 	529
f 432 	522 	435
f 530 	494 	516
f 520 	522 	432
f 502 	480 	355
f 608 	251 	381
f 423 	530 	531
f 435 	522 	523
f 383 	338 	530
f 414 	591 	448
f 61 	94 	555
f 448 	516 	338
f 527 	536 	534
f 379 	369 	529
f 525 	527 	534
f 93 	58 	502
f 528 	536 	527
f 369 	326 	529
f 526 	529 	507
f 326 	507 	529
f 512 	23 	508
f 438 	621 	586
f 586 	589 	438
f 537 	477 	98
f 591 	438 	589
f 436 	149 	635
f 22 	508 	23
f 537 	98 	152
f 44 	894 	587
f 635 	649 	436
f 423 	531 	538
f 542 	471 	538
f 305 	534 	271
f 473 	423 	538
f 534 	536 	271
f 273 	271 	536
f 514 	23 	512
f 471 	473 	538
f 477 	537 	541
f 479 	477 	541
f 542 	547 	471
f 479 	541 	544
f 495 	479 	544
f 480 	502 	58
f 658 	455 	450
f 144 	355 	480
f 519 	521 	546
f 661 	673 	459
f 514 	489 	184
f 515 	459 	673
f 834 	32 	64
f 548 	539 	132
f 92 	64 	63
f 545 	779 	778
f 157 	108 	555
f 546 	513 	551
f 62 	61 	555
f 616 	449 	464
f 449 	616 	618
f 778 	355 	545
f 561 	562 	475
f 517 	844 	554
f 475 	562 	583
f 251 	550 	552
f 444 	540 	373
f 110 	144 	566
f 880 	110 	566
f 556 	276 	267
f 553 	564 	212
f 556 	558 	276
f 167 	212 	564
f 558 	560 	276
f 276 	560 	277
f 560 	563 	270
f 516 	570 	530
f 560 	270 	277
f 575 	570 	516
f 270 	563 	565
f 329 	482 	265
f 570 	572 	530
f 565 	532 	270
f 530 	572 	531
f 573 	531 	572
f 590 	328 	574
f 143 	135 	668
f 531 	573 	538
f 667 	143 	668
f 569 	540 	444
f 562 	580 	583
f 583 	580 	585
f 585 	580 	597
f 160 	70 	69
f 475 	583 	590
f 590 	574 	475
f 44 	587 	49
f 590 	583 	585
f 544 	579 	495
f 444 	648 	569
f 208 	700 	699
f 495 	579 	499
f 609 	590 	585
f 163 	162 	587
f 503 	499 	579
f 49 	613 	114
f 330 	328 	590
f 191 	190 	584
f 503 	579 	581
f 330 	590 	609
f 373 	540 	549
f 163 	587 	577
f 573 	592 	538
f 542 	538 	592
f 581 	588 	526
f 584 	121 	595
f 587 	613 	49
f 194 	232 	71
f 593 	542 	592
f 448 	615 	516
f 585 	597 	601
f 547 	542 	593
f 503 	581 	526
f 597 	620 	599
f 602 	603 	604
f 601 	597 	599
f 121 	606 	595
f 190 	121 	584
f 603 	605 	604
f 578 	600 	598
f 593 	594 	547
f 598 	600 	596
f 247 	208 	699
f 247 	699 	250
f 609 	585 	601
f 727 	547 	594
f 250 	698 	376
f 602 	604 	529
f 608 	381 	605
f 601 	599 	607
f 614 	612 	598
f 567 	853 	611
f 607 	609 	601
f 559 	401 	549
f 610 	50 	611
f 11 	567 	611
f 229 	72 	232
f 335 	330 	609
f 448 	591 	615
f 285 	266 	490
f 232 	72 	71
f 607 	333 	335
f 607 	335 	609
f 175 	613 	587
f 194 	71 	70
f 575 	516 	615
f 401 	559 	334
f 450 	420 	617
f 752 	280 	286
f 617 	658 	450
f 121 	122 	617
f 603 	602 	526
f 529 	526 	602
f 137 	617 	122
f 622 	620 	619
f 68 	85 	176
f 526 	588 	603
f 612 	284 	283
f 622 	599 	620
f 617 	606 	121
f 612 	614 	284
f 145 	140 	500
f 137 	658 	617
f 72 	262 	66
f 595 	606 	491
f 229 	262 	72
f 691 	692 	519
f 168 	548 	174
f 692 	624 	519
f 449 	618 	621
f 622 	607 	599
f 449 	621 	443
f 578 	692 	702
f 548 	126 	174
f 126 	548 	453
f 625 	607 	622
f 416 	606 	617
f 126 	453 	130
f 624 	692 	578
f 600 	578 	702
f 702 	711 	600
f 528 	519 	624
f 145 	500 	152
f 624 	629 	528
f 506 	334 	559
f 152 	500 	517
f 693 	337 	342
f 624 	578 	629
f 152 	517 	537
f 629 	578 	598
f 630 	536 	528
f 630 	528 	629
f 339 	333 	607
f 339 	607 	625
f 625 	343 	339
f 641 	6 	626
f 619 	620 	642
f 612 	629 	598
f 644 	630 	629
f 643 	640 	650
f 645 	643 	650
f 756 	648 	636
f 626 	792 	797
f 629 	612 	644
f 626 	797 	783
f 288 	273 	536
f 487 	637 	647
f 647 	645 	487
f 487 	645 	650
f 312 	631 	633
f 288 	536 	630
f 597 	580 	651
f 636 	311 	312
f 630 	289 	288
f 630 	644 	289
f 53 	52 	632
f 612 	283 	289
f 633 	636 	312
f 452 	646 	716
f 83 	640 	643
f 644 	612 	289
f 603 	684 	605
f 642 	620 	597
f 497 	638 	879
f 645 	83 	643
f 685 	605 	684
f 497 	454 	638
f 645 	76 	83
f 651 	642 	597
f 77 	76 	645
f 600 	725 	596
f 685 	608 	605
f 648 	858 	636
f 685 	707 	608
f 434 	649 	628
f 77 	637 	74
f 550 	608 	707
f 642 	680 	679
f 645 	647 	77
f 652 	729 	732
f 77 	647 	637
f 50 	610 	628
f 652 	732 	627
f 756 	569 	648
f 651 	671 	680
f 654 	730 	561
f 635 	632 	52
f 655 	652 	656
f 626 	783 	641
f 651 	680 	642
f 656 	652 	627
f 641 	782 	781
f 28 	709 	85
f 635 	52 	649
f 656 	627 	634
f 337 	693 	675
f 51 	628 	649
f 543 	641 	781
f 598 	596 	659
f 659 	596 	653
f 83 	80 	640
f 658 	661 	455
f 662 	653 	654
f 518 	686 	663
f 482 	329 	676
f 657 	575 	615
f 720 	715 	657
f 674 	653 	662
f 666 	663 	655
f 667 	668 	665
f 654 	561 	475
f 661 	658 	137
f 664 	668 	640
f 457 	518 	663
f 656 	666 	655
f 664 	665 	668
f 650 	640 	668
f 475 	662 	654
f 669 	666 	656
f 659 	670 	614
f 575 	657 	715
f 139 	661 	137
f 853 	567 	426
f 598 	659 	614
f 458 	457 	666
f 541 	537 	517
f 426 	567 	571
f 284 	614 	670
f 554 	544 	541
f 672 	670 	659
f 571 	429 	426
f 659 	653 	674
f 135 	650 	668
f 554 	541 	517
f 634 	669 	656
f 554 	557 	544
f 673 	661 	139
f 659 	674 	672
f 693 	232 	675
f 142 	673 	139
f 579 	544 	557
f 232 	194 	675
f 664 	640 	80
f 142 	811 	673
f 674 	662 	672
f 557 	581 	579
f 663 	666 	457
f 710 	405 	437
f 458 	666 	461
f 539 	548 	168
f 405 	712 	623
f 581 	557 	678
f 568 	678 	557
f 669 	634 	646
f 623 	387 	405
f 677 	672 	662
f 675 	331 	337
f 539 	167 	564
f 665 	103 	694
f 676 	331 	675
f 670 	293 	284
f 676 	329 	331
f 623 	626 	387
f 143 	787 	777
f 665 	664 	89
f 390 	387 	626
f 539 	168 	167
f 664 	80 	89
f 447 	518 	457
f 595 	491 	484
f 490 	486 	160
f 475 	677 	662
f 391 	390 	626
f 160 	176 	490
f 461 	666 	669
f 820 	724 	294
f 701 	181 	667
f 293 	670 	672
f 669 	452 	461
f 483 	419 	584
f 88 	665 	89
f 176 	751 	490
f 452 	669 	646
f 784 	642 	679
f 665 	88 	103
f 484 	584 	595
f 581 	678 	588
f 778 	779 	683
f 779 	780 	683
f 626 	6 	391
f 297 	293 	672
f 297 	672 	677
f 498 	681 	686
f 117 	114 	613
f 487 	488 	637
f 681 	652 	655
f 613 	660 	117
f 262 	690 	687
f 576 	755 	682
f 686 	681 	655
f 519 	546 	691
f 660 	120 	117
f 74 	637 	94
f 688 	94 	637
f 120 	660 	413
f 690 	229 	693
f 660 	718 	413
f 229 	232 	693
f 698 	699 	694
f 757 	692 	691
f 743 	243 	697
f 695 	775 	694
f 699 	700 	694
f 665 	694 	700
f 701 	665 	700
f 667 	665 	701
f 415 	413 	718
f 697 	135 	776
f 690 	693 	342
f 697 	487 	650
f 684 	704 	685
f 663 	686 	655
f 699 	698 	250
f 135 	777 	776
f 576 	715 	720
f 691 	551 	757
f 622 	619 	703
f 588 	678 	603
f 135 	143 	777
f 703 	717 	622
f 859 	685 	704
f 682 	319 	318
f 717 	703 	705
f 135 	697 	650
f 689 	682 	318
f 696 	317 	316
f 318 	317 	689
f 706 	705 	807
f 751 	176 	709
f 689 	317 	696
f 571 	437 	429
f 627 	708 	634
f 691 	546 	551
f 696 	316 	315
f 104 	695 	103
f 694 	103 	695
f 405 	710 	712
f 708 	713 	634
f 181 	701 	183
f 437 	571 	710
f 696 	315 	736
f 854 	754 	258
f 701 	700 	216
f 256 	854 	258
f 183 	701 	216
f 713 	708 	897
f 861 	854 	256
f 698 	775 	376
f 714 	625 	622
f 712 	710 	885
f 176 	85 	709
f 550 	524 	552
f 524 	553 	552
f 714 	622 	717
f 406 	386 	774
f 725 	600 	711
f 707 	524 	550
f 564 	553 	524
f 524 	539 	564
f 343 	625 	714
f 716 	634 	713
f 705 	706 	717
f 563 	560 	218
f 716 	646 	634
f 576 	682 	715
f 718 	723 	415
f 428 	115 	107
f 728 	419 	415
f 107 	404 	402
f 709 	28 	719
f 678 	568 	684
f 684 	568 	704
f 484 	483 	584
f 28 	218 	719
f 684 	603 	678
f 569 	849 	540
f 851 	582 	866
f 714 	717 	706
f 410 	406 	774
f 728 	415 	723
f 774 	810 	410
f 295 	721 	296
f 295 	722 	721
f 410 	810 	496
f 465 	452 	716
f 720 	867 	856
f 809 	500 	810
f 465 	716 	36
f 653 	596 	726
f 500 	496 	810
f 568 	746 	704
f 346 	348 	738
f 547 	727 	681
f 726 	596 	725
f 727 	729 	652
f 725 	776 	726
f 690 	342 	347
f 730 	653 	726
f 652 	681 	727
f 722 	295 	294
f 654 	653 	730
f 722 	294 	724
f 344 	343 	714
f 762 	729 	727
f 191 	584 	728
f 735 	348 	350
f 849 	569 	756
f 561 	730 	761
f 765 	732 	729
f 732 	739 	708
f 737 	731 	733
f 594 	736 	721
f 737 	733 	740
f 777 	726 	776
f 742 	740 	733
f 741 	21 	109
f 296 	721 	736
f 315 	296 	736
f 746 	568 	557
f 741 	740 	742
f 319 	682 	755
f 708 	627 	732
f 26 	21 	742
f 741 	742 	21
f 747 	346 	744
f 743 	711 	702
f 745 	725 	711
f 743 	745 	711
f 749 	737 	740
f 735 	350 	734
f 708 	739 	897
f 735 	738 	348
f 712 	885 	889
f 240 	748 	241
f 719 	752 	709
f 749 	750 	737
f 623 	712 	889
f 749 	740 	741
f 524 	148 	147
f 154 	524 	147
f 719 	753 	752
f 744 	346 	738
f 261 	748 	240
f 707 	148 	524
f 874 	749 	86
f 346 	747 	347
f 751 	285 	490
f 754 	616 	793
f 751 	286 	285
f 748 	258 	754
f 39 	739 	166
f 347 	747 	687
f 751 	752 	286
f 687 	690 	347
f 280 	752 	753
f 576 	720 	755
f 86 	741 	109
f 260 	748 	261
f 753 	281 	280
f 790 	462 	785
f 749 	385 	750
f 753 	267 	281
f 462 	790 	463
f 561 	761 	562
f 753 	556 	267
f 859 	704 	746
f 259 	748 	260
f 763 	580 	562
f 749 	874 	199
f 793 	464 	791
f 385 	749 	389
f 386 	376 	775
f 616 	464 	793
f 297 	677 	574
f 258 	748 	259
f 193 	758 	757
f 199 	290 	389
f 199 	389 	749
f 328 	297 	574
f 619 	642 	759
f 243 	743 	758
f 703 	619 	759
f 758 	193 	243
f 851 	639 	582
f 759 	865 	703
f 660 	613 	173
f 692 	757 	758
f 149 	632 	635
f 692 	758 	743
f 761 	763 	562
f 743 	702 	692
f 560 	558 	218
f 762 	722 	765
f 175 	173 	613
f 753 	719 	218
f 753 	218 	556
f 580 	763 	770
f 556 	218 	558
f 594 	762 	727
f 768 	767 	774
f 769 	764 	772
f 566 	144 	480
f 729 	762 	765
f 697 	745 	743
f 771 	775 	695
f 771 	768 	774
f 774 	775 	771
f 698 	694 	775
f 766 	765 	722
f 745 	697 	776
f 769 	760 	773
f 651 	580 	770
f 769 	773 	764
f 732 	765 	766
f 731 	737 	772
f 759 	642 	784
f 164 	587 	162
f 772 	764 	731
f 725 	745 	776
f 766 	166 	732
f 781 	782 	683
f 783 	797 	683
f 782 	783 	683
f 732 	166 	739
f 730 	726 	777
f 763 	671 	770
f 783 	782 	641
f 774 	386 	775
f 770 	671 	651
f 709 	752 	751
f 198 	523 	833
f 208 	679 	680
f 784 	208 	247
f 543 	781 	780
f 545 	543 	780
f 780 	779 	545
f 784 	679 	208
f 250 	901 	784
f 104 	771 	695
f 784 	247 	250
f 786 	143 	181
f 480 	58 	165
f 566 	480 	165
f 165 	577 	566
f 788 	769 	772
f 163 	577 	165
f 143 	786 	787
f 786 	181 	183
f 788 	789 	769
f 791 	754 	793
f 786 	183 	671
f 172 	820 	824
f 113 	771 	104
f 164 	175 	587
f 671 	183 	216
f 177 	172 	824
f 532 	533 	298
f 876 	683 	792
f 671 	216 	680
f 533 	535 	298
f 824 	805 	177
f 299 	298 	535
f 208 	680 	216
f 312 	299 	535
f 791 	464 	790
f 772 	750 	788
f 790 	464 	463
f 805 	149 	151
f 730 	777 	787
f 116 	115 	428
f 385 	788 	750
f 750 	772 	737
f 797 	792 	683
f 761 	730 	787
f 44 	49 	396
f 796 	198 	836
f 787 	786 	761
f 112 	111 	767
f 761 	786 	763
f 49 	114 	396
f 767 	768 	112
f 396 	114 	95
f 763 	786 	671
f 113 	112 	768
f 513 	510 	184
f 113 	768 	771
f 789 	788 	394
f 395 	394 	788
f 675 	194 	676
f 800 	54 	795
f 801 	799 	748
f 194 	160 	676
f 171 	660 	173
f 385 	395 	788
f 73 	54 	800
f 160 	482 	676
f 796 	468 	467
f 60 	106 	760
f 795 	794 	800
f 171 	718 	660
f 160 	486 	482
f 800 	794 	806
f 551 	193 	757
f 198 	796 	467
f 170 	718 	171
f 796 	799 	468
f 806 	794 	798
f 705 	703 	865
f 149 	805 	632
f 468 	799 	469
f 802 	810 	804
f 803 	809 	802
f 809 	810 	802
f 804 	810 	767
f 118 	803 	802
f 799 	470 	469
f 75 	60 	760
f 802 	804 	119
f 801 	470 	799
f 118 	802 	119
f 760 	769 	75
f 801 	462 	470
f 829 	565 	563
f 808 	91 	75
f 804 	111 	119
f 801 	785 	462
f 805 	236 	53
f 767 	111 	804
f 808 	75 	769
f 718 	170 	723
f 682 	570 	715
f 805 	53 	632
f 774 	767 	810
f 570 	682 	572
f 789 	808 	769
f 723 	170 	728
f 515 	673 	811
f 812 	714 	706
f 398 	105 	808
f 573 	572 	689
f 808 	105 	91
f 811 	522 	520
f 789 	394 	808
f 398 	808 	394
f 813 	73 	800
f 23 	184 	510
f 344 	714 	812
f 203 	202 	831
f 344 	812 	814
f 803 	826 	809
f 203 	831 	336
f 733 	731 	815
f 100 	835 	354
f 817 	813 	800
f 150 	264 	811
f 818 	278 	204
f 187 	513 	184
f 815 	819 	733
f 246 	278 	818
f 551 	513 	187
f 344 	814 	352
f 817 	800 	806
f 818 	204 	234
f 742 	733 	819
f 193 	551 	187
f 244 	818 	234
f 123 	418 	466
f 807 	872 	821
f 116 	418 	123
f 246 	818 	244
f 116 	428 	418
f 819 	822 	742
f 315 	823 	296
f 213 	295 	823
f 706 	807 	825
f 246 	244 	269
f 249 	388 	827
f 825 	807 	821
f 840 	841 	826
f 828 	816 	826
f 615 	591 	657
f 820 	294 	237
f 825 	821 	830
f 826 	803 	129
f 118 	129 	803
f 218 	829 	563
f 202 	249 	827
f 762 	594 	721
f 820 	237 	824
f 823 	127 	213
f 822 	382 	871
f 127 	823 	860
f 532 	565 	829
f 827 	831 	202
f 706 	825 	812
f 826 	129 	840
f 825 	814 	812
f 848 	827 	388
f 298 	270 	532
f 827 	848 	831
f 815 	24 	864
f 816 	809 	826
f 301 	324 	813
f 819 	815 	864
f 825 	830 	814
f 824 	237 	236
f 834 	532 	829
f 819 	864 	822
f 301 	813 	817
f 830 	832 	814
f 871 	742 	822
f 533 	532 	834
f 302 	301 	817
f 805 	824 	236
f 852 	24 	815
f 92 	533 	834
f 828 	517 	500
f 198 	833 	836
f 829 	218 	32
f 500 	816 	828
f 794 	340 	345
f 264 	833 	811
f 517 	828 	845
f 798 	794 	345
f 832 	830 	846
f 133 	524 	154
f 133 	539 	524
f 798 	345 	521
f 814 	832 	352
f 539 	133 	132
f 356 	352 	832
f 829 	32 	834
f 835 	397 	354
f 132 	124 	548
f 521 	345 	546
f 264 	230 	833
f 806 	798 	525
f 454 	382 	822
f 453 	548 	124
f 798 	521 	525
f 879 	880 	384
f 838 	817 	806
f 124 	123 	453
f 230 	836 	833
f 866 	545 	851
f 230 	241 	836
f 838 	806 	525
f 497 	879 	384
f 880 	888 	384
f 842 	826 	841
f 843 	826 	842
f 843 	844 	826
f 844 	845 	826
f 828 	826 	845
f 570 	575 	715
f 534 	838 	525
f 888 	392 	384
f 305 	302 	838
f 830 	821 	846
f 838 	302 	817
f 129 	153 	840
f 811 	520 	515
f 846 	821 	837
f 760 	106 	847
f 838 	534 	305
f 848 	628 	610
f 846 	837 	850
f 572 	682 	689
f 773 	760 	847
f 837 	839 	850
f 535 	631 	312
f 628 	433 	434
f 696 	573 	689
f 862 	850 	839
f 848 	433 	628
f 852 	773 	847
f 592 	573 	696
f 833 	523 	811
f 847 	106 	7
f 611 	853 	848
f 843 	554 	844
f 593 	592 	696
f 360 	130 	55
f 557 	554 	843
f 611 	848 	610
f 724 	166 	766
f 773 	852 	764
f 557 	843 	842
f 557 	842 	841
f 722 	724 	766
f 746 	557 	841
f 724 	820 	166
f 746 	841 	840
f 832 	846 	855
f 166 	820 	169
f 764 	852 	731
f 169 	820 	172
f 253 	146 	856
f 847 	7 	12
f 436 	649 	434
f 847 	12 	852
f 384 	309 	497
f 146 	127 	856
f 861 	589 	586
f 855 	846 	850
f 153 	155 	859
f 731 	852 	815
f 796 	836 	857
f 848 	388 	433
f 685 	859 	155
f 755 	720 	856
f 831 	848 	853
f 685 	155 	707
f 852 	12 	24
f 155 	148 	707
f 336 	831 	853
f 617 	420 	417
f 336 	853 	426
f 491 	606 	416
f 867 	720 	657
f 857 	836 	241
f 657 	591 	867
f 416 	617 	417
f 861 	621 	618
f 755 	860 	319
f 861 	618 	854
f 55 	358 	360
f 149 	436 	100
f 861 	586 	621
f 748 	857 	241
f 127 	860 	856
f 755 	856 	860
f 734 	350 	358
f 436 	835 	100
f 358 	55 	734
f 567 	10 	571
f 311 	636 	858
f 832 	855 	356
f 357 	356 	855
f 153 	859 	840
f 859 	746 	840
f 357 	855 	873
f 24 	543 	545
f 863 	311 	858
f 82 	472 	56
f 864 	24 	545
f 639 	851 	110
f 502 	778 	683
f 780 	781 	683
f 472 	82 	474
f 864 	545 	866
f 38 	20 	858
f 876 	178 	93
f 876 	93 	683
f 100 	474 	82
f 311 	863 	320
f 90 	862 	895
f 611 	50 	11
f 474 	100 	354
f 589 	861 	867
f 865 	868 	705
f 867 	591 	589
f 869 	850 	862
f 86 	309 	874
f 21 	26 	309
f 567 	11 	10
f 705 	868 	807
f 19 	863 	20
f 858 	20 	863
f 253 	856 	867
f 807 	868 	872
f 822 	864 	866
f 493 	870 	478
f 736 	593 	696
f 454 	497 	382
f 22 	23 	559
f 593 	736 	594
f 409 	870 	493
f 873 	855 	850
f 741 	86 	749
f 506 	559 	23
f 866 	582 	454
f 898 	110 	851
f 873 	850 	869
f 822 	866 	454
f 876 	792 	875
f 56 	877 	48
f 639 	879 	638
f 616 	754 	854
f 877 	56 	881
f 616 	854 	618
f 878 	889 	882
f 881 	56 	472
f 23 	510 	506
f 884 	821 	872
f 639 	880 	879
f 883 	882 	885
f 883 	885 	2
f 10 	2 	885
f 762 	721 	722
f 886 	877 	881
f 887 	17 	38
f 792 	889 	875
f 878 	875 	889
f 885 	882 	889
f 880 	566 	888
f 892 	877 	886
f 178 	876 	875
f 26 	742 	871
f 888 	566 	577
f 881 	472 	478
f 875 	878 	179
f 92 	535 	533
f 796 	857 	799
f 178 	875 	179
f 92 	631 	535
f 857 	748 	799
f 881 	478 	886
f 821 	884 	837
f 785 	801 	748
f 182 	878 	882
f 865 	759 	784
f 92 	108 	633
f 126 	359 	57
f 784 	901 	865
f 748 	790 	785
f 748 	754 	791
f 130 	359 	126
f 748 	791 	790
f 891 	890 	15
f 130 	360 	359
f 15 	877 	892
f 892 	891 	15
f 254 	867 	861
f 10 	885 	571
f 867 	254 	253
f 837 	884 	839
f 888 	577 	893
f 886 	891 	892
f 890 	412 	36
f 587 	894 	893
f 412 	890 	891
f 710 	571 	885
f 862 	87 	25
f 891 	886 	870
f 633 	631 	92
f 90 	87 	862
f 409 	891 	870
f 862 	14 	869
f 633 	108 	636
f 886 	478 	870
f 14 	862 	25
f 894 	396 	393
f 883 	2 	42
f 639 	110 	880
f 412 	891 	409
f 893 	577 	587
f 895 	839 	884
f 888 	893 	392
f 4 	873 	869
f 897 	739 	39
f 893 	894 	392
f 108 	157 	756
f 4 	869 	14
f 392 	894 	393
f 896 	897 	40
f 48 	877 	896
f 396 	894 	44
f 14 	43 	4
f 896 	40 	48
f 182 	179 	878
f 4 	357 	873
f 4 	16 	357
f 896 	15 	713
f 188 	182 	882
f 636 	108 	756
f 897 	39 	40
f 887 	38 	858
f 7 	6 	641
f 188 	882 	883
f 713 	897 	896
f 188 	883 	42
f 7 	641 	12
f 15 	896 	877
f 24 	12 	543
f 30 	523 	198
f 641 	543 	12
f 849 	756 	157
f 862 	839 	895
f 13 	716 	713
f 54 	373 	401
f 626 	889 	792
f 890 	13 	15
f 890 	36 	13
f 372 	373 	887
f 17 	887 	373
f 13 	713 	15
f 626 	623 	889
f 898 	851 	545
f 467 	30 	198
f 728 	170 	191
f 13 	36 	716
f 17 	373 	54
f 11 	50 	8
f 899 	900 	849
f 26 	871 	497
f 540 	849 	900
f 871 	382 	497
f 309 	26 	497
f 648 	444 	858
f 334 	795 	54
f 872 	1 	9
f 884 	872 	9
f 9 	5 	884
f 5 	895 	884
f 138 	90 	895
f 895 	5 	138
f 54 	401 	334
f 865 	901 	868
f 887 	858 	444
f 901 	902 	868
f 900 	549 	540
f 17 	131 	20
f 747 	262 	687
f 38 	17 	20
f 868 	902 	872
f 262 	747 	744
f 872 	902 	1
f 404 	738 	402
f 402 	738 	735
f 404 	744 	738
f 22 	549 	900
f 898 	545 	355
f 110 	898 	144
f 899 	157 	361
f 899 	849 	157
f 22 	559 	549
f 509 	900 	505
f 505 	900 	361
f 899 	361 	900
f 144 	898 	355
f 509 	22 	900
# 1796 faces

 #end of obj_0

